<mxfile host="app.diagrams.net" agent="Mozilla/5.0 (Windows NT 10.0; Win64; x64) AppleWebKit/537.36 (KHTML, like Gecko) Chrome/138.0.0.0 Safari/537.36" version="27.1.6">
  <diagram name="Algo" id="V0WDtm5OCkZCwaTn6wmb">
    <mxGraphModel dx="1106" dy="605" grid="1" gridSize="10" guides="1" tooltips="1" connect="1" arrows="1" fold="1" page="1" pageScale="1" pageWidth="850" pageHeight="1100" math="0" shadow="0">
      <root>
        <mxCell id="0" />
        <mxCell id="1" parent="0" />
        <mxCell id="SwKolqAlQwYtQp0SGR7i-1" value="Linked List" style="text;html=1;align=center;verticalAlign=middle;resizable=0;points=[];autosize=1;strokeColor=none;fillColor=none;" parent="1" vertex="1">
          <mxGeometry x="120" y="28" width="80" height="30" as="geometry" />
        </mxCell>
        <mxCell id="SwKolqAlQwYtQp0SGR7i-5" style="edgeStyle=orthogonalEdgeStyle;rounded=0;orthogonalLoop=1;jettySize=auto;html=1;" parent="1" source="SwKolqAlQwYtQp0SGR7i-2" edge="1">
          <mxGeometry relative="1" as="geometry">
            <mxPoint x="260" y="100" as="targetPoint" />
          </mxGeometry>
        </mxCell>
        <mxCell id="SwKolqAlQwYtQp0SGR7i-2" value="" style="whiteSpace=wrap;html=1;" parent="1" vertex="1">
          <mxGeometry x="80" y="80" width="120" height="40" as="geometry" />
        </mxCell>
        <mxCell id="SwKolqAlQwYtQp0SGR7i-3" value="" style="whiteSpace=wrap;html=1;" parent="1" vertex="1">
          <mxGeometry x="80" y="80" width="60" height="40" as="geometry" />
        </mxCell>
        <mxCell id="SwKolqAlQwYtQp0SGR7i-4" value="data" style="text;html=1;align=center;verticalAlign=middle;whiteSpace=wrap;rounded=0;" parent="1" vertex="1">
          <mxGeometry x="80" y="80" width="60" height="30" as="geometry" />
        </mxCell>
        <mxCell id="SwKolqAlQwYtQp0SGR7i-12" style="edgeStyle=orthogonalEdgeStyle;rounded=0;orthogonalLoop=1;jettySize=auto;html=1;" parent="1" source="SwKolqAlQwYtQp0SGR7i-6" edge="1">
          <mxGeometry relative="1" as="geometry">
            <mxPoint x="450" y="100" as="targetPoint" />
          </mxGeometry>
        </mxCell>
        <mxCell id="SwKolqAlQwYtQp0SGR7i-6" value="" style="whiteSpace=wrap;html=1;" parent="1" vertex="1">
          <mxGeometry x="260" y="80" width="120" height="40" as="geometry" />
        </mxCell>
        <mxCell id="SwKolqAlQwYtQp0SGR7i-7" value="" style="whiteSpace=wrap;html=1;" parent="1" vertex="1">
          <mxGeometry x="260" y="80" width="60" height="40" as="geometry" />
        </mxCell>
        <mxCell id="SwKolqAlQwYtQp0SGR7i-8" value="data" style="text;html=1;align=center;verticalAlign=middle;whiteSpace=wrap;rounded=0;" parent="1" vertex="1">
          <mxGeometry x="250" y="80" width="60" height="30" as="geometry" />
        </mxCell>
        <mxCell id="SwKolqAlQwYtQp0SGR7i-16" style="edgeStyle=orthogonalEdgeStyle;rounded=0;orthogonalLoop=1;jettySize=auto;html=1;" parent="1" source="SwKolqAlQwYtQp0SGR7i-9" edge="1">
          <mxGeometry relative="1" as="geometry">
            <mxPoint x="620" y="100" as="targetPoint" />
          </mxGeometry>
        </mxCell>
        <mxCell id="SwKolqAlQwYtQp0SGR7i-9" value="" style="whiteSpace=wrap;html=1;" parent="1" vertex="1">
          <mxGeometry x="450" y="80" width="120" height="40" as="geometry" />
        </mxCell>
        <mxCell id="SwKolqAlQwYtQp0SGR7i-10" value="" style="whiteSpace=wrap;html=1;" parent="1" vertex="1">
          <mxGeometry x="450" y="80" width="60" height="40" as="geometry" />
        </mxCell>
        <mxCell id="SwKolqAlQwYtQp0SGR7i-11" value="data" style="text;html=1;align=center;verticalAlign=middle;whiteSpace=wrap;rounded=0;" parent="1" vertex="1">
          <mxGeometry x="440" y="80" width="60" height="30" as="geometry" />
        </mxCell>
        <mxCell id="SwKolqAlQwYtQp0SGR7i-13" value="0X11" style="text;html=1;align=center;verticalAlign=middle;resizable=0;points=[];autosize=1;strokeColor=none;fillColor=none;" parent="1" vertex="1">
          <mxGeometry x="105" y="118" width="50" height="30" as="geometry" />
        </mxCell>
        <mxCell id="SwKolqAlQwYtQp0SGR7i-14" value="0X33" style="text;html=1;align=center;verticalAlign=middle;resizable=0;points=[];autosize=1;strokeColor=none;fillColor=none;" parent="1" vertex="1">
          <mxGeometry x="295" y="128" width="50" height="30" as="geometry" />
        </mxCell>
        <mxCell id="SwKolqAlQwYtQp0SGR7i-15" value="0X100" style="text;html=1;align=center;verticalAlign=middle;resizable=0;points=[];autosize=1;strokeColor=none;fillColor=none;" parent="1" vertex="1">
          <mxGeometry x="470" y="128" width="60" height="30" as="geometry" />
        </mxCell>
        <mxCell id="SwKolqAlQwYtQp0SGR7i-17" value="Null" style="text;html=1;align=center;verticalAlign=middle;resizable=0;points=[];autosize=1;strokeColor=none;fillColor=none;" parent="1" vertex="1">
          <mxGeometry x="620" y="88" width="40" height="30" as="geometry" />
        </mxCell>
        <mxCell id="SwKolqAlQwYtQp0SGR7i-19" style="edgeStyle=orthogonalEdgeStyle;rounded=0;orthogonalLoop=1;jettySize=auto;html=1;entryX=0;entryY=0.75;entryDx=0;entryDy=0;" parent="1" source="SwKolqAlQwYtQp0SGR7i-18" target="SwKolqAlQwYtQp0SGR7i-4" edge="1">
          <mxGeometry relative="1" as="geometry" />
        </mxCell>
        <mxCell id="SwKolqAlQwYtQp0SGR7i-18" value="Head" style="text;html=1;align=center;verticalAlign=middle;resizable=0;points=[];autosize=1;strokeColor=none;fillColor=none;" parent="1" vertex="1">
          <mxGeometry x="20" y="140" width="50" height="30" as="geometry" />
        </mxCell>
        <mxCell id="SwKolqAlQwYtQp0SGR7i-20" value="&amp;nbsp; &amp;nbsp; &amp;nbsp; &amp;nbsp; &amp;nbsp; &amp;nbsp; &amp;nbsp; &amp;nbsp;next" style="whiteSpace=wrap;html=1;" parent="1" vertex="1">
          <mxGeometry x="190" y="270" width="120" height="40" as="geometry" />
        </mxCell>
        <mxCell id="SwKolqAlQwYtQp0SGR7i-21" value="" style="whiteSpace=wrap;html=1;" parent="1" vertex="1">
          <mxGeometry x="190" y="270" width="60" height="40" as="geometry" />
        </mxCell>
        <mxCell id="SwKolqAlQwYtQp0SGR7i-22" value="data" style="text;html=1;align=center;verticalAlign=middle;whiteSpace=wrap;rounded=0;" parent="1" vertex="1">
          <mxGeometry x="200" y="275" width="40" height="30" as="geometry" />
        </mxCell>
        <mxCell id="SwKolqAlQwYtQp0SGR7i-23" value="prev" style="whiteSpace=wrap;html=1;" parent="1" vertex="1">
          <mxGeometry x="140" y="270" width="50" height="40" as="geometry" />
        </mxCell>
        <mxCell id="SwKolqAlQwYtQp0SGR7i-24" style="edgeStyle=orthogonalEdgeStyle;rounded=0;orthogonalLoop=1;jettySize=auto;html=1;" parent="1" source="SwKolqAlQwYtQp0SGR7i-25" edge="1">
          <mxGeometry relative="1" as="geometry">
            <mxPoint x="450" y="470" as="targetPoint" />
          </mxGeometry>
        </mxCell>
        <mxCell id="SwKolqAlQwYtQp0SGR7i-25" value="" style="whiteSpace=wrap;html=1;" parent="1" vertex="1">
          <mxGeometry x="270" y="450" width="120" height="40" as="geometry" />
        </mxCell>
        <mxCell id="SwKolqAlQwYtQp0SGR7i-26" value="" style="whiteSpace=wrap;html=1;" parent="1" vertex="1">
          <mxGeometry x="270" y="450" width="60" height="40" as="geometry" />
        </mxCell>
        <mxCell id="SwKolqAlQwYtQp0SGR7i-27" value="5" style="text;html=1;align=center;verticalAlign=middle;whiteSpace=wrap;rounded=0;" parent="1" vertex="1">
          <mxGeometry x="270" y="450" width="60" height="30" as="geometry" />
        </mxCell>
        <mxCell id="SwKolqAlQwYtQp0SGR7i-29" value="null" style="text;html=1;align=center;verticalAlign=middle;resizable=0;points=[];autosize=1;strokeColor=none;fillColor=none;" parent="1" vertex="1">
          <mxGeometry x="450" y="448" width="40" height="30" as="geometry" />
        </mxCell>
        <mxCell id="SwKolqAlQwYtQp0SGR7i-38" style="edgeStyle=orthogonalEdgeStyle;rounded=0;orthogonalLoop=1;jettySize=auto;html=1;" parent="1" source="SwKolqAlQwYtQp0SGR7i-30" edge="1">
          <mxGeometry relative="1" as="geometry">
            <mxPoint x="210" y="540" as="targetPoint" />
          </mxGeometry>
        </mxCell>
        <mxCell id="SwKolqAlQwYtQp0SGR7i-41" style="edgeStyle=orthogonalEdgeStyle;rounded=0;orthogonalLoop=1;jettySize=auto;html=1;" parent="1" source="SwKolqAlQwYtQp0SGR7i-30" edge="1">
          <mxGeometry relative="1" as="geometry">
            <mxPoint x="280" y="660" as="targetPoint" />
          </mxGeometry>
        </mxCell>
        <mxCell id="SwKolqAlQwYtQp0SGR7i-30" value="5" style="whiteSpace=wrap;html=1;" parent="1" vertex="1">
          <mxGeometry x="280" y="560" width="40" height="40" as="geometry" />
        </mxCell>
        <mxCell id="SwKolqAlQwYtQp0SGR7i-40" style="edgeStyle=orthogonalEdgeStyle;rounded=0;orthogonalLoop=1;jettySize=auto;html=1;" parent="1" source="SwKolqAlQwYtQp0SGR7i-31" edge="1">
          <mxGeometry relative="1" as="geometry">
            <mxPoint x="340" y="530" as="targetPoint" />
          </mxGeometry>
        </mxCell>
        <mxCell id="SwKolqAlQwYtQp0SGR7i-31" value="6" style="whiteSpace=wrap;html=1;" parent="1" vertex="1">
          <mxGeometry x="320" y="560" width="40" height="40" as="geometry" />
        </mxCell>
        <mxCell id="SwKolqAlQwYtQp0SGR7i-32" value="7" style="whiteSpace=wrap;html=1;" parent="1" vertex="1">
          <mxGeometry x="360" y="560" width="40" height="40" as="geometry" />
        </mxCell>
        <mxCell id="SwKolqAlQwYtQp0SGR7i-33" value="8" style="whiteSpace=wrap;html=1;" parent="1" vertex="1">
          <mxGeometry x="400" y="560" width="40" height="40" as="geometry" />
        </mxCell>
        <mxCell id="SwKolqAlQwYtQp0SGR7i-36" style="edgeStyle=orthogonalEdgeStyle;rounded=0;orthogonalLoop=1;jettySize=auto;html=1;" parent="1" source="SwKolqAlQwYtQp0SGR7i-34" edge="1">
          <mxGeometry relative="1" as="geometry">
            <mxPoint x="510" y="550" as="targetPoint" />
          </mxGeometry>
        </mxCell>
        <mxCell id="SwKolqAlQwYtQp0SGR7i-34" value="9" style="whiteSpace=wrap;html=1;" parent="1" vertex="1">
          <mxGeometry x="440" y="560" width="40" height="40" as="geometry" />
        </mxCell>
        <mxCell id="SwKolqAlQwYtQp0SGR7i-37" value="rear" style="text;html=1;align=center;verticalAlign=middle;resizable=0;points=[];autosize=1;strokeColor=none;fillColor=none;" parent="1" vertex="1">
          <mxGeometry x="490" y="498" width="40" height="30" as="geometry" />
        </mxCell>
        <mxCell id="SwKolqAlQwYtQp0SGR7i-39" value="front" style="text;html=1;align=center;verticalAlign=middle;resizable=0;points=[];autosize=1;strokeColor=none;fillColor=none;" parent="1" vertex="1">
          <mxGeometry x="315" y="510" width="50" height="30" as="geometry" />
        </mxCell>
        <mxCell id="CwgE0OJDXyVaKxsBkRuX-6" style="rounded=0;orthogonalLoop=1;jettySize=auto;html=1;" parent="1" source="CwgE0OJDXyVaKxsBkRuX-1" target="CwgE0OJDXyVaKxsBkRuX-2" edge="1">
          <mxGeometry relative="1" as="geometry" />
        </mxCell>
        <mxCell id="CwgE0OJDXyVaKxsBkRuX-7" style="rounded=0;orthogonalLoop=1;jettySize=auto;html=1;" parent="1" source="CwgE0OJDXyVaKxsBkRuX-1" target="CwgE0OJDXyVaKxsBkRuX-3" edge="1">
          <mxGeometry relative="1" as="geometry" />
        </mxCell>
        <mxCell id="CwgE0OJDXyVaKxsBkRuX-1" value="1" style="text;html=1;align=center;verticalAlign=middle;resizable=0;points=[];autosize=1;strokeColor=none;fillColor=none;" parent="1" vertex="1">
          <mxGeometry x="305" y="718" width="30" height="30" as="geometry" />
        </mxCell>
        <mxCell id="CwgE0OJDXyVaKxsBkRuX-2" value="2" style="text;html=1;align=center;verticalAlign=middle;resizable=0;points=[];autosize=1;strokeColor=none;fillColor=none;" parent="1" vertex="1">
          <mxGeometry x="255" y="758" width="30" height="30" as="geometry" />
        </mxCell>
        <mxCell id="CwgE0OJDXyVaKxsBkRuX-3" value="3" style="text;html=1;align=center;verticalAlign=middle;resizable=0;points=[];autosize=1;strokeColor=none;fillColor=none;" parent="1" vertex="1">
          <mxGeometry x="345" y="758" width="30" height="30" as="geometry" />
        </mxCell>
        <mxCell id="CwgE0OJDXyVaKxsBkRuX-4" value="4" style="text;html=1;align=center;verticalAlign=middle;resizable=0;points=[];autosize=1;strokeColor=none;fillColor=none;" parent="1" vertex="1">
          <mxGeometry x="190" y="808" width="30" height="30" as="geometry" />
        </mxCell>
        <mxCell id="CwgE0OJDXyVaKxsBkRuX-5" value="5" style="text;html=1;align=center;verticalAlign=middle;resizable=0;points=[];autosize=1;strokeColor=none;fillColor=none;" parent="1" vertex="1">
          <mxGeometry x="285" y="820" width="30" height="30" as="geometry" />
        </mxCell>
        <mxCell id="CwgE0OJDXyVaKxsBkRuX-8" style="rounded=0;orthogonalLoop=1;jettySize=auto;html=1;entryX=0.967;entryY=0.267;entryDx=0;entryDy=0;entryPerimeter=0;" parent="1" source="CwgE0OJDXyVaKxsBkRuX-2" target="CwgE0OJDXyVaKxsBkRuX-4" edge="1">
          <mxGeometry relative="1" as="geometry" />
        </mxCell>
        <mxCell id="CwgE0OJDXyVaKxsBkRuX-9" style="rounded=0;orthogonalLoop=1;jettySize=auto;html=1;entryX=0.733;entryY=0.133;entryDx=0;entryDy=0;entryPerimeter=0;" parent="1" source="CwgE0OJDXyVaKxsBkRuX-2" target="CwgE0OJDXyVaKxsBkRuX-5" edge="1">
          <mxGeometry relative="1" as="geometry" />
        </mxCell>
        <mxCell id="CwgE0OJDXyVaKxsBkRuX-10" value="Complete binary tree" style="text;html=1;align=center;verticalAlign=middle;resizable=0;points=[];autosize=1;strokeColor=none;fillColor=none;fontStyle=1" parent="1" vertex="1">
          <mxGeometry x="155" y="678" width="130" height="30" as="geometry" />
        </mxCell>
        <mxCell id="CwgE0OJDXyVaKxsBkRuX-12" style="rounded=0;orthogonalLoop=1;jettySize=auto;html=1;" parent="1" source="CwgE0OJDXyVaKxsBkRuX-11" edge="1">
          <mxGeometry relative="1" as="geometry">
            <mxPoint x="570" y="760" as="targetPoint" />
          </mxGeometry>
        </mxCell>
        <mxCell id="CwgE0OJDXyVaKxsBkRuX-11" value="1" style="text;html=1;align=center;verticalAlign=middle;resizable=0;points=[];autosize=1;strokeColor=none;fillColor=none;" parent="1" vertex="1">
          <mxGeometry x="625" y="688" width="30" height="30" as="geometry" />
        </mxCell>
        <mxCell id="CwgE0OJDXyVaKxsBkRuX-14" style="rounded=0;orthogonalLoop=1;jettySize=auto;html=1;" parent="1" source="CwgE0OJDXyVaKxsBkRuX-13" edge="1">
          <mxGeometry relative="1" as="geometry">
            <mxPoint x="540" y="830" as="targetPoint" />
          </mxGeometry>
        </mxCell>
        <mxCell id="CwgE0OJDXyVaKxsBkRuX-13" value="2" style="text;html=1;align=center;verticalAlign=middle;resizable=0;points=[];autosize=1;strokeColor=none;fillColor=none;" parent="1" vertex="1">
          <mxGeometry x="555" y="758" width="30" height="30" as="geometry" />
        </mxCell>
        <mxCell id="CwgE0OJDXyVaKxsBkRuX-15" value="3" style="text;html=1;align=center;verticalAlign=middle;resizable=0;points=[];autosize=1;strokeColor=none;fillColor=none;" parent="1" vertex="1">
          <mxGeometry x="520" y="830" width="30" height="30" as="geometry" />
        </mxCell>
        <mxCell id="CwgE0OJDXyVaKxsBkRuX-25" style="edgeStyle=none;rounded=0;orthogonalLoop=1;jettySize=auto;html=1;" parent="1" source="CwgE0OJDXyVaKxsBkRuX-16" target="CwgE0OJDXyVaKxsBkRuX-18" edge="1">
          <mxGeometry relative="1" as="geometry" />
        </mxCell>
        <mxCell id="CwgE0OJDXyVaKxsBkRuX-16" value="50" style="text;html=1;align=center;verticalAlign=middle;resizable=0;points=[];autosize=1;strokeColor=none;fillColor=none;" parent="1" vertex="1">
          <mxGeometry x="310" y="878" width="40" height="30" as="geometry" />
        </mxCell>
        <mxCell id="CwgE0OJDXyVaKxsBkRuX-23" style="edgeStyle=none;rounded=0;orthogonalLoop=1;jettySize=auto;html=1;" parent="1" source="CwgE0OJDXyVaKxsBkRuX-17" edge="1">
          <mxGeometry relative="1" as="geometry">
            <mxPoint x="240" y="960" as="targetPoint" />
          </mxGeometry>
        </mxCell>
        <mxCell id="CwgE0OJDXyVaKxsBkRuX-17" value="30" style="text;html=1;align=center;verticalAlign=middle;resizable=0;points=[];autosize=1;strokeColor=none;fillColor=none;" parent="1" vertex="1">
          <mxGeometry x="270" y="918" width="40" height="30" as="geometry" />
        </mxCell>
        <mxCell id="CwgE0OJDXyVaKxsBkRuX-28" style="edgeStyle=none;rounded=0;orthogonalLoop=1;jettySize=auto;html=1;" parent="1" source="CwgE0OJDXyVaKxsBkRuX-18" target="CwgE0OJDXyVaKxsBkRuX-26" edge="1">
          <mxGeometry relative="1" as="geometry" />
        </mxCell>
        <mxCell id="CwgE0OJDXyVaKxsBkRuX-29" style="edgeStyle=none;rounded=0;orthogonalLoop=1;jettySize=auto;html=1;" parent="1" source="CwgE0OJDXyVaKxsBkRuX-18" target="CwgE0OJDXyVaKxsBkRuX-27" edge="1">
          <mxGeometry relative="1" as="geometry" />
        </mxCell>
        <mxCell id="CwgE0OJDXyVaKxsBkRuX-18" value="70" style="text;html=1;align=center;verticalAlign=middle;resizable=0;points=[];autosize=1;strokeColor=none;fillColor=none;" parent="1" vertex="1">
          <mxGeometry x="365" y="918" width="40" height="30" as="geometry" />
        </mxCell>
        <mxCell id="CwgE0OJDXyVaKxsBkRuX-19" value="20" style="text;html=1;align=center;verticalAlign=middle;resizable=0;points=[];autosize=1;strokeColor=none;fillColor=none;" parent="1" vertex="1">
          <mxGeometry x="220" y="970" width="40" height="30" as="geometry" />
        </mxCell>
        <mxCell id="CwgE0OJDXyVaKxsBkRuX-20" value="40" style="text;html=1;align=center;verticalAlign=middle;resizable=0;points=[];autosize=1;strokeColor=none;fillColor=none;" parent="1" vertex="1">
          <mxGeometry x="295" y="970" width="40" height="30" as="geometry" />
        </mxCell>
        <mxCell id="CwgE0OJDXyVaKxsBkRuX-22" style="edgeStyle=none;rounded=0;orthogonalLoop=1;jettySize=auto;html=1;entryX=0.475;entryY=0.167;entryDx=0;entryDy=0;entryPerimeter=0;" parent="1" source="CwgE0OJDXyVaKxsBkRuX-16" target="CwgE0OJDXyVaKxsBkRuX-17" edge="1">
          <mxGeometry relative="1" as="geometry" />
        </mxCell>
        <mxCell id="CwgE0OJDXyVaKxsBkRuX-24" style="edgeStyle=none;rounded=0;orthogonalLoop=1;jettySize=auto;html=1;entryX=0.625;entryY=0.167;entryDx=0;entryDy=0;entryPerimeter=0;" parent="1" source="CwgE0OJDXyVaKxsBkRuX-17" target="CwgE0OJDXyVaKxsBkRuX-20" edge="1">
          <mxGeometry relative="1" as="geometry" />
        </mxCell>
        <mxCell id="CwgE0OJDXyVaKxsBkRuX-26" value="60" style="text;html=1;align=center;verticalAlign=middle;resizable=0;points=[];autosize=1;strokeColor=none;fillColor=none;" parent="1" vertex="1">
          <mxGeometry x="360" y="970" width="40" height="30" as="geometry" />
        </mxCell>
        <mxCell id="CwgE0OJDXyVaKxsBkRuX-27" value="80" style="text;html=1;align=center;verticalAlign=middle;resizable=0;points=[];autosize=1;strokeColor=none;fillColor=none;" parent="1" vertex="1">
          <mxGeometry x="430" y="958" width="40" height="30" as="geometry" />
        </mxCell>
        <mxCell id="CwgE0OJDXyVaKxsBkRuX-30" value="50,60,70,80,90.100,110,120,130" style="text;html=1;align=center;verticalAlign=middle;resizable=0;points=[];autosize=1;strokeColor=none;fillColor=none;" parent="1" vertex="1">
          <mxGeometry x="550" y="900" width="200" height="30" as="geometry" />
        </mxCell>
        <mxCell id="CwgE0OJDXyVaKxsBkRuX-32" style="edgeStyle=none;rounded=0;orthogonalLoop=1;jettySize=auto;html=1;" parent="1" source="CwgE0OJDXyVaKxsBkRuX-31" edge="1">
          <mxGeometry relative="1" as="geometry">
            <mxPoint x="650" y="990" as="targetPoint" />
          </mxGeometry>
        </mxCell>
        <mxCell id="CwgE0OJDXyVaKxsBkRuX-31" value="50" style="text;html=1;align=center;verticalAlign=middle;resizable=0;points=[];autosize=1;strokeColor=none;fillColor=none;" parent="1" vertex="1">
          <mxGeometry x="555" y="1030" width="40" height="30" as="geometry" />
        </mxCell>
        <mxCell id="CwgE0OJDXyVaKxsBkRuX-38" value="" style="edgeStyle=none;rounded=0;orthogonalLoop=1;jettySize=auto;html=1;" parent="1" source="CwgE0OJDXyVaKxsBkRuX-33" target="CwgE0OJDXyVaKxsBkRuX-40" edge="1">
          <mxGeometry relative="1" as="geometry" />
        </mxCell>
        <mxCell id="CwgE0OJDXyVaKxsBkRuX-33" value="60" style="text;html=1;align=center;verticalAlign=middle;resizable=0;points=[];autosize=1;strokeColor=none;fillColor=none;" parent="1" vertex="1">
          <mxGeometry x="640" y="970" width="40" height="30" as="geometry" />
        </mxCell>
        <mxCell id="CwgE0OJDXyVaKxsBkRuX-39" style="edgeStyle=none;rounded=0;orthogonalLoop=1;jettySize=auto;html=1;" parent="1" source="CwgE0OJDXyVaKxsBkRuX-37" edge="1">
          <mxGeometry relative="1" as="geometry">
            <mxPoint x="810" y="1070" as="targetPoint" />
          </mxGeometry>
        </mxCell>
        <mxCell id="CwgE0OJDXyVaKxsBkRuX-37" value="70" style="text;html=1;align=center;verticalAlign=middle;resizable=0;points=[];autosize=1;strokeColor=none;fillColor=none;" parent="1" vertex="1">
          <mxGeometry x="700" y="1100" width="40" height="30" as="geometry" />
        </mxCell>
        <mxCell id="CwgE0OJDXyVaKxsBkRuX-41" style="edgeStyle=none;rounded=0;orthogonalLoop=1;jettySize=auto;html=1;" parent="1" source="CwgE0OJDXyVaKxsBkRuX-40" edge="1">
          <mxGeometry relative="1" as="geometry">
            <mxPoint x="900" y="1110" as="targetPoint" />
          </mxGeometry>
        </mxCell>
        <mxCell id="CwgE0OJDXyVaKxsBkRuX-40" value="80" style="text;html=1;align=center;verticalAlign=middle;resizable=0;points=[];autosize=1;strokeColor=none;fillColor=none;" parent="1" vertex="1">
          <mxGeometry x="790" y="1050" width="40" height="30" as="geometry" />
        </mxCell>
        <mxCell id="CwgE0OJDXyVaKxsBkRuX-43" value="90" style="text;html=1;align=center;verticalAlign=middle;resizable=0;points=[];autosize=1;strokeColor=none;fillColor=none;" parent="1" vertex="1">
          <mxGeometry x="890" y="1108" width="40" height="30" as="geometry" />
        </mxCell>
        <mxCell id="CwgE0OJDXyVaKxsBkRuX-44" value="1" style="text;html=1;align=center;verticalAlign=middle;resizable=0;points=[];autosize=1;strokeColor=none;fillColor=none;" parent="1" vertex="1">
          <mxGeometry x="605" y="958" width="30" height="30" as="geometry" />
        </mxCell>
        <mxCell id="CwgE0OJDXyVaKxsBkRuX-45" value="3" style="text;html=1;align=center;verticalAlign=middle;resizable=0;points=[];autosize=1;strokeColor=none;fillColor=none;" parent="1" vertex="1">
          <mxGeometry x="705" y="958" width="30" height="30" as="geometry" />
        </mxCell>
        <mxCell id="CwgE0OJDXyVaKxsBkRuX-47" style="edgeStyle=none;rounded=0;orthogonalLoop=1;jettySize=auto;html=1;" parent="1" source="CwgE0OJDXyVaKxsBkRuX-46" target="CwgE0OJDXyVaKxsBkRuX-48" edge="1">
          <mxGeometry relative="1" as="geometry">
            <mxPoint x="180" y="1100" as="targetPoint" />
          </mxGeometry>
        </mxCell>
        <mxCell id="CwgE0OJDXyVaKxsBkRuX-46" value="50" style="text;html=1;align=center;verticalAlign=middle;resizable=0;points=[];autosize=1;strokeColor=none;fillColor=none;" parent="1" vertex="1">
          <mxGeometry x="70" y="1130" width="40" height="30" as="geometry" />
        </mxCell>
        <mxCell id="CwgE0OJDXyVaKxsBkRuX-49" style="edgeStyle=none;rounded=0;orthogonalLoop=1;jettySize=auto;html=1;" parent="1" source="CwgE0OJDXyVaKxsBkRuX-48" edge="1">
          <mxGeometry relative="1" as="geometry">
            <mxPoint x="260" y="1170" as="targetPoint" />
          </mxGeometry>
        </mxCell>
        <mxCell id="CwgE0OJDXyVaKxsBkRuX-48" value="60" style="text;html=1;align=center;verticalAlign=middle;resizable=0;points=[];autosize=1;strokeColor=none;fillColor=none;" parent="1" vertex="1">
          <mxGeometry x="190" y="1038" width="40" height="30" as="geometry" />
        </mxCell>
        <mxCell id="CwgE0OJDXyVaKxsBkRuX-51" style="edgeStyle=none;rounded=0;orthogonalLoop=1;jettySize=auto;html=1;entryX=0.15;entryY=0.9;entryDx=0;entryDy=0;entryPerimeter=0;" parent="1" source="CwgE0OJDXyVaKxsBkRuX-50" target="CwgE0OJDXyVaKxsBkRuX-52" edge="1">
          <mxGeometry relative="1" as="geometry">
            <mxPoint x="350" y="1240" as="targetPoint" />
          </mxGeometry>
        </mxCell>
        <mxCell id="CwgE0OJDXyVaKxsBkRuX-50" value="70" style="text;html=1;align=center;verticalAlign=middle;resizable=0;points=[];autosize=1;strokeColor=none;fillColor=none;" parent="1" vertex="1">
          <mxGeometry x="200" y="1300" width="40" height="30" as="geometry" />
        </mxCell>
        <mxCell id="CwgE0OJDXyVaKxsBkRuX-53" style="edgeStyle=none;rounded=0;orthogonalLoop=1;jettySize=auto;html=1;entryX=-0.05;entryY=0.3;entryDx=0;entryDy=0;entryPerimeter=0;" parent="1" source="CwgE0OJDXyVaKxsBkRuX-52" target="CwgE0OJDXyVaKxsBkRuX-54" edge="1">
          <mxGeometry relative="1" as="geometry">
            <mxPoint x="480" y="1330" as="targetPoint" />
          </mxGeometry>
        </mxCell>
        <mxCell id="CwgE0OJDXyVaKxsBkRuX-52" value="80" style="text;html=1;align=center;verticalAlign=middle;resizable=0;points=[];autosize=1;strokeColor=none;fillColor=none;" parent="1" vertex="1">
          <mxGeometry x="260" y="1180" width="40" height="30" as="geometry" />
        </mxCell>
        <mxCell id="CwgE0OJDXyVaKxsBkRuX-54" value="90" style="text;html=1;align=center;verticalAlign=middle;resizable=0;points=[];autosize=1;strokeColor=none;fillColor=none;" parent="1" vertex="1">
          <mxGeometry x="450" y="1280" width="40" height="30" as="geometry" />
        </mxCell>
        <mxCell id="CwgE0OJDXyVaKxsBkRuX-56" style="edgeStyle=none;rounded=0;orthogonalLoop=1;jettySize=auto;html=1;" parent="1" source="CwgE0OJDXyVaKxsBkRuX-55" edge="1">
          <mxGeometry relative="1" as="geometry">
            <mxPoint x="480" y="1390" as="targetPoint" />
          </mxGeometry>
        </mxCell>
        <mxCell id="CwgE0OJDXyVaKxsBkRuX-58" style="edgeStyle=none;rounded=0;orthogonalLoop=1;jettySize=auto;html=1;" parent="1" source="CwgE0OJDXyVaKxsBkRuX-55" edge="1">
          <mxGeometry relative="1" as="geometry">
            <mxPoint x="640" y="1390" as="targetPoint" />
          </mxGeometry>
        </mxCell>
        <mxCell id="CwgE0OJDXyVaKxsBkRuX-55" value="1" style="text;html=1;align=center;verticalAlign=middle;resizable=0;points=[];autosize=1;strokeColor=none;fillColor=none;" parent="1" vertex="1">
          <mxGeometry x="540" y="1340" width="30" height="30" as="geometry" />
        </mxCell>
        <mxCell id="CwgE0OJDXyVaKxsBkRuX-60" style="edgeStyle=none;rounded=0;orthogonalLoop=1;jettySize=auto;html=1;" parent="1" source="CwgE0OJDXyVaKxsBkRuX-57" edge="1">
          <mxGeometry relative="1" as="geometry">
            <mxPoint x="400" y="1450" as="targetPoint" />
          </mxGeometry>
        </mxCell>
        <mxCell id="CwgE0OJDXyVaKxsBkRuX-62" style="edgeStyle=none;rounded=0;orthogonalLoop=1;jettySize=auto;html=1;" parent="1" source="CwgE0OJDXyVaKxsBkRuX-57" edge="1">
          <mxGeometry relative="1" as="geometry">
            <mxPoint x="530" y="1450" as="targetPoint" />
          </mxGeometry>
        </mxCell>
        <mxCell id="CwgE0OJDXyVaKxsBkRuX-57" value="2" style="text;html=1;align=center;verticalAlign=middle;resizable=0;points=[];autosize=1;strokeColor=none;fillColor=none;" parent="1" vertex="1">
          <mxGeometry x="455" y="1388" width="30" height="30" as="geometry" />
        </mxCell>
        <mxCell id="CwgE0OJDXyVaKxsBkRuX-64" style="edgeStyle=none;rounded=0;orthogonalLoop=1;jettySize=auto;html=1;" parent="1" source="CwgE0OJDXyVaKxsBkRuX-59" edge="1">
          <mxGeometry relative="1" as="geometry">
            <mxPoint x="740" y="1450" as="targetPoint" />
          </mxGeometry>
        </mxCell>
        <mxCell id="CwgE0OJDXyVaKxsBkRuX-59" value="3" style="text;html=1;align=center;verticalAlign=middle;resizable=0;points=[];autosize=1;strokeColor=none;fillColor=none;" parent="1" vertex="1">
          <mxGeometry x="655" y="1388" width="30" height="30" as="geometry" />
        </mxCell>
        <mxCell id="CwgE0OJDXyVaKxsBkRuX-61" value="4" style="text;html=1;align=center;verticalAlign=middle;resizable=0;points=[];autosize=1;strokeColor=none;fillColor=none;" parent="1" vertex="1">
          <mxGeometry x="365" y="1448" width="30" height="30" as="geometry" />
        </mxCell>
        <mxCell id="CwgE0OJDXyVaKxsBkRuX-63" value="5" style="text;html=1;align=center;verticalAlign=middle;resizable=0;points=[];autosize=1;strokeColor=none;fillColor=none;" parent="1" vertex="1">
          <mxGeometry x="525" y="1458" width="30" height="30" as="geometry" />
        </mxCell>
        <mxCell id="CwgE0OJDXyVaKxsBkRuX-65" value="6" style="text;html=1;align=center;verticalAlign=middle;resizable=0;points=[];autosize=1;strokeColor=none;fillColor=none;" parent="1" vertex="1">
          <mxGeometry x="755" y="1448" width="30" height="30" as="geometry" />
        </mxCell>
        <mxCell id="CwgE0OJDXyVaKxsBkRuX-69" style="edgeStyle=none;rounded=0;orthogonalLoop=1;jettySize=auto;html=1;" parent="1" source="CwgE0OJDXyVaKxsBkRuX-66" target="CwgE0OJDXyVaKxsBkRuX-67" edge="1">
          <mxGeometry relative="1" as="geometry" />
        </mxCell>
        <mxCell id="CwgE0OJDXyVaKxsBkRuX-66" value="A" style="text;html=1;align=center;verticalAlign=middle;resizable=0;points=[];autosize=1;strokeColor=none;fillColor=none;" parent="1" vertex="1">
          <mxGeometry x="115" y="1348" width="30" height="30" as="geometry" />
        </mxCell>
        <mxCell id="CwgE0OJDXyVaKxsBkRuX-67" value="B" style="text;html=1;align=center;verticalAlign=middle;resizable=0;points=[];autosize=1;strokeColor=none;fillColor=none;" parent="1" vertex="1">
          <mxGeometry x="95" y="1398" width="30" height="30" as="geometry" />
        </mxCell>
        <mxCell id="CwgE0OJDXyVaKxsBkRuX-68" value="C" style="text;html=1;align=center;verticalAlign=middle;resizable=0;points=[];autosize=1;strokeColor=none;fillColor=none;" parent="1" vertex="1">
          <mxGeometry x="160" y="1400" width="30" height="30" as="geometry" />
        </mxCell>
        <mxCell id="CwgE0OJDXyVaKxsBkRuX-70" style="edgeStyle=none;rounded=0;orthogonalLoop=1;jettySize=auto;html=1;entryX=0.2;entryY=0.9;entryDx=0;entryDy=0;entryPerimeter=0;" parent="1" source="CwgE0OJDXyVaKxsBkRuX-67" target="CwgE0OJDXyVaKxsBkRuX-68" edge="1">
          <mxGeometry relative="1" as="geometry" />
        </mxCell>
        <mxCell id="QzvvF3R52LffJEx-eBrv-4" style="edgeStyle=orthogonalEdgeStyle;rounded=0;orthogonalLoop=1;jettySize=auto;html=1;" parent="1" source="QzvvF3R52LffJEx-eBrv-1" edge="1">
          <mxGeometry relative="1" as="geometry">
            <mxPoint x="650" y="1850" as="targetPoint" />
          </mxGeometry>
        </mxCell>
        <mxCell id="QzvvF3R52LffJEx-eBrv-30" style="edgeStyle=orthogonalEdgeStyle;rounded=0;orthogonalLoop=1;jettySize=auto;html=1;" parent="1" source="QzvvF3R52LffJEx-eBrv-1" edge="1">
          <mxGeometry relative="1" as="geometry">
            <mxPoint x="650" y="1920" as="targetPoint" />
          </mxGeometry>
        </mxCell>
        <mxCell id="QzvvF3R52LffJEx-eBrv-1" value="HasFunction" style="whiteSpace=wrap;html=1;" parent="1" vertex="1">
          <mxGeometry x="405" y="1810" width="120" height="60" as="geometry" />
        </mxCell>
        <mxCell id="QzvvF3R52LffJEx-eBrv-3" style="edgeStyle=orthogonalEdgeStyle;rounded=0;orthogonalLoop=1;jettySize=auto;html=1;" parent="1" source="QzvvF3R52LffJEx-eBrv-2" target="QzvvF3R52LffJEx-eBrv-1" edge="1">
          <mxGeometry relative="1" as="geometry" />
        </mxCell>
        <mxCell id="QzvvF3R52LffJEx-eBrv-2" value="Input" style="text;html=1;align=center;verticalAlign=middle;resizable=0;points=[];autosize=1;strokeColor=none;fillColor=none;" parent="1" vertex="1">
          <mxGeometry x="260" y="1820" width="50" height="30" as="geometry" />
        </mxCell>
        <mxCell id="QzvvF3R52LffJEx-eBrv-5" value="Output" style="text;html=1;align=center;verticalAlign=middle;resizable=0;points=[];autosize=1;strokeColor=none;fillColor=none;" parent="1" vertex="1">
          <mxGeometry x="655" y="1840" width="60" height="30" as="geometry" />
        </mxCell>
        <mxCell id="QzvvF3R52LffJEx-eBrv-6" value="Mohit" style="text;html=1;align=center;verticalAlign=middle;resizable=0;points=[];autosize=1;strokeColor=none;fillColor=none;" parent="1" vertex="1">
          <mxGeometry x="205" y="1790" width="50" height="30" as="geometry" />
        </mxCell>
        <mxCell id="QzvvF3R52LffJEx-eBrv-7" value="ABC" style="text;html=1;align=center;verticalAlign=middle;resizable=0;points=[];autosize=1;strokeColor=none;fillColor=none;" parent="1" vertex="1">
          <mxGeometry x="665" y="1808" width="50" height="30" as="geometry" />
        </mxCell>
        <mxCell id="QzvvF3R52LffJEx-eBrv-34" style="edgeStyle=orthogonalEdgeStyle;rounded=0;orthogonalLoop=1;jettySize=auto;html=1;" parent="1" source="QzvvF3R52LffJEx-eBrv-8" edge="1">
          <mxGeometry relative="1" as="geometry">
            <mxPoint x="570" y="1945" as="targetPoint" />
          </mxGeometry>
        </mxCell>
        <mxCell id="QzvvF3R52LffJEx-eBrv-35" style="edgeStyle=orthogonalEdgeStyle;rounded=0;orthogonalLoop=1;jettySize=auto;html=1;" parent="1" source="QzvvF3R52LffJEx-eBrv-8" edge="1">
          <mxGeometry relative="1" as="geometry">
            <mxPoint x="230" y="1945" as="targetPoint" />
          </mxGeometry>
        </mxCell>
        <mxCell id="QzvvF3R52LffJEx-eBrv-8" value="For given input always get same output" style="text;html=1;align=center;verticalAlign=middle;resizable=0;points=[];autosize=1;strokeColor=#82b366;fillColor=#d5e8d4;" parent="1" vertex="1">
          <mxGeometry x="300" y="1930" width="230" height="30" as="geometry" />
        </mxCell>
        <mxCell id="QzvvF3R52LffJEx-eBrv-36" style="edgeStyle=orthogonalEdgeStyle;rounded=0;orthogonalLoop=1;jettySize=auto;html=1;" parent="1" source="QzvvF3R52LffJEx-eBrv-9" edge="1">
          <mxGeometry relative="1" as="geometry">
            <mxPoint x="600" y="1985" as="targetPoint" />
          </mxGeometry>
        </mxCell>
        <mxCell id="QzvvF3R52LffJEx-eBrv-37" style="edgeStyle=orthogonalEdgeStyle;rounded=0;orthogonalLoop=1;jettySize=auto;html=1;" parent="1" source="QzvvF3R52LffJEx-eBrv-9" edge="1">
          <mxGeometry relative="1" as="geometry">
            <mxPoint x="190" y="1985" as="targetPoint" />
          </mxGeometry>
        </mxCell>
        <mxCell id="QzvvF3R52LffJEx-eBrv-9" value="From Hash Value - You can not get original input" style="text;html=1;align=center;verticalAlign=middle;resizable=0;points=[];autosize=1;strokeColor=#82b366;fillColor=#d5e8d4;" parent="1" vertex="1">
          <mxGeometry x="270" y="1970" width="280" height="30" as="geometry" />
        </mxCell>
        <mxCell id="QzvvF3R52LffJEx-eBrv-10" value="Hash Value" style="text;html=1;align=center;verticalAlign=middle;resizable=0;points=[];autosize=1;strokeColor=none;fillColor=none;" parent="1" vertex="1">
          <mxGeometry x="660" y="1758" width="80" height="30" as="geometry" />
        </mxCell>
        <mxCell id="QzvvF3R52LffJEx-eBrv-11" value="Mohit1" style="text;html=1;align=center;verticalAlign=middle;resizable=0;points=[];autosize=1;strokeColor=none;fillColor=none;" parent="1" vertex="1">
          <mxGeometry x="200" y="1828" width="60" height="30" as="geometry" />
        </mxCell>
        <mxCell id="QzvvF3R52LffJEx-eBrv-12" value="Null" style="whiteSpace=wrap;html=1;fillColor=#fff2cc;strokeColor=#d6b656;" parent="1" vertex="1">
          <mxGeometry x="360" y="2080" width="120" height="40" as="geometry" />
        </mxCell>
        <mxCell id="QzvvF3R52LffJEx-eBrv-13" value="" style="whiteSpace=wrap;html=1;" parent="1" vertex="1">
          <mxGeometry x="360" y="2120" width="120" height="40" as="geometry" />
        </mxCell>
        <mxCell id="QzvvF3R52LffJEx-eBrv-14" value="" style="whiteSpace=wrap;html=1;" parent="1" vertex="1">
          <mxGeometry x="360" y="2160" width="120" height="40" as="geometry" />
        </mxCell>
        <mxCell id="QzvvF3R52LffJEx-eBrv-15" value="" style="whiteSpace=wrap;html=1;" parent="1" vertex="1">
          <mxGeometry x="360" y="2200" width="120" height="40" as="geometry" />
        </mxCell>
        <mxCell id="QzvvF3R52LffJEx-eBrv-53" style="edgeStyle=orthogonalEdgeStyle;rounded=0;orthogonalLoop=1;jettySize=auto;html=1;" parent="1" source="QzvvF3R52LffJEx-eBrv-16" edge="1">
          <mxGeometry relative="1" as="geometry">
            <mxPoint x="420" y="2450" as="targetPoint" />
          </mxGeometry>
        </mxCell>
        <mxCell id="QzvvF3R52LffJEx-eBrv-16" value="" style="whiteSpace=wrap;html=1;" parent="1" vertex="1">
          <mxGeometry x="360" y="2240" width="120" height="40" as="geometry" />
        </mxCell>
        <mxCell id="QzvvF3R52LffJEx-eBrv-17" value="&amp;lt;K,V&amp;gt;" style="text;html=1;align=center;verticalAlign=middle;resizable=0;points=[];autosize=1;strokeColor=none;fillColor=none;" parent="1" vertex="1">
          <mxGeometry x="510" y="2078" width="60" height="30" as="geometry" />
        </mxCell>
        <mxCell id="QzvvF3R52LffJEx-eBrv-18" value="0" style="text;html=1;align=center;verticalAlign=middle;resizable=0;points=[];autosize=1;strokeColor=none;fillColor=none;" parent="1" vertex="1">
          <mxGeometry x="315" y="2080" width="30" height="30" as="geometry" />
        </mxCell>
        <mxCell id="QzvvF3R52LffJEx-eBrv-19" value="1" style="text;html=1;align=center;verticalAlign=middle;resizable=0;points=[];autosize=1;strokeColor=none;fillColor=none;" parent="1" vertex="1">
          <mxGeometry x="315" y="2118" width="30" height="30" as="geometry" />
        </mxCell>
        <mxCell id="QzvvF3R52LffJEx-eBrv-20" value="2" style="text;html=1;align=center;verticalAlign=middle;resizable=0;points=[];autosize=1;strokeColor=none;fillColor=none;" parent="1" vertex="1">
          <mxGeometry x="315" y="2158" width="30" height="30" as="geometry" />
        </mxCell>
        <mxCell id="QzvvF3R52LffJEx-eBrv-21" value="3" style="text;html=1;align=center;verticalAlign=middle;resizable=0;points=[];autosize=1;strokeColor=none;fillColor=none;" parent="1" vertex="1">
          <mxGeometry x="325" y="2198" width="30" height="30" as="geometry" />
        </mxCell>
        <mxCell id="QzvvF3R52LffJEx-eBrv-22" value="4" style="text;html=1;align=center;verticalAlign=middle;resizable=0;points=[];autosize=1;strokeColor=none;fillColor=none;" parent="1" vertex="1">
          <mxGeometry x="325" y="2248" width="30" height="30" as="geometry" />
        </mxCell>
        <mxCell id="QzvvF3R52LffJEx-eBrv-39" style="edgeStyle=orthogonalEdgeStyle;rounded=0;orthogonalLoop=1;jettySize=auto;html=1;" parent="1" source="QzvvF3R52LffJEx-eBrv-23" target="QzvvF3R52LffJEx-eBrv-38" edge="1">
          <mxGeometry relative="1" as="geometry" />
        </mxCell>
        <mxCell id="QzvvF3R52LffJEx-eBrv-43" value="" style="edgeStyle=orthogonalEdgeStyle;rounded=0;orthogonalLoop=1;jettySize=auto;html=1;" parent="1" source="QzvvF3R52LffJEx-eBrv-23" target="QzvvF3R52LffJEx-eBrv-38" edge="1">
          <mxGeometry relative="1" as="geometry" />
        </mxCell>
        <mxCell id="QzvvF3R52LffJEx-eBrv-23" value="Name , Dhruvik" style="text;html=1;align=center;verticalAlign=middle;resizable=0;points=[];autosize=1;strokeColor=none;fillColor=none;" parent="1" vertex="1">
          <mxGeometry x="470" y="2125" width="110" height="30" as="geometry" />
        </mxCell>
        <mxCell id="QzvvF3R52LffJEx-eBrv-25" style="edgeStyle=orthogonalEdgeStyle;rounded=0;orthogonalLoop=1;jettySize=auto;html=1;entryX=0;entryY=0.25;entryDx=0;entryDy=0;" parent="1" source="QzvvF3R52LffJEx-eBrv-24" target="QzvvF3R52LffJEx-eBrv-1" edge="1">
          <mxGeometry relative="1" as="geometry" />
        </mxCell>
        <mxCell id="QzvvF3R52LffJEx-eBrv-24" value="Name1" style="text;html=1;align=center;verticalAlign=middle;resizable=0;points=[];autosize=1;strokeColor=none;fillColor=none;" parent="1" vertex="1">
          <mxGeometry x="255" y="1750" width="60" height="30" as="geometry" />
        </mxCell>
        <mxCell id="QzvvF3R52LffJEx-eBrv-26" value="1" style="text;html=1;align=center;verticalAlign=middle;resizable=0;points=[];autosize=1;strokeColor=none;fillColor=none;" parent="1" vertex="1">
          <mxGeometry x="665" y="1878" width="30" height="30" as="geometry" />
        </mxCell>
        <mxCell id="QzvvF3R52LffJEx-eBrv-27" value="age - 25" style="text;html=1;align=center;verticalAlign=middle;resizable=0;points=[];autosize=1;strokeColor=none;fillColor=none;" parent="1" vertex="1">
          <mxGeometry x="105" y="1898" width="70" height="30" as="geometry" />
        </mxCell>
        <mxCell id="QzvvF3R52LffJEx-eBrv-28" value="qualification" style="text;html=1;align=center;verticalAlign=middle;resizable=0;points=[];autosize=1;strokeColor=none;fillColor=none;" parent="1" vertex="1">
          <mxGeometry x="275" y="1700" width="90" height="30" as="geometry" />
        </mxCell>
        <mxCell id="QzvvF3R52LffJEx-eBrv-29" style="edgeStyle=orthogonalEdgeStyle;rounded=0;orthogonalLoop=1;jettySize=auto;html=1;entryX=0.117;entryY=0.083;entryDx=0;entryDy=0;entryPerimeter=0;" parent="1" source="QzvvF3R52LffJEx-eBrv-28" target="QzvvF3R52LffJEx-eBrv-1" edge="1">
          <mxGeometry relative="1" as="geometry" />
        </mxCell>
        <mxCell id="QzvvF3R52LffJEx-eBrv-31" value="2" style="text;html=1;align=center;verticalAlign=middle;resizable=0;points=[];autosize=1;strokeColor=none;fillColor=none;" parent="1" vertex="1">
          <mxGeometry x="665" y="1918" width="30" height="30" as="geometry" />
        </mxCell>
        <mxCell id="QzvvF3R52LffJEx-eBrv-32" value="age - 25" style="text;html=1;align=center;verticalAlign=middle;resizable=0;points=[];autosize=1;strokeColor=none;fillColor=none;" parent="1" vertex="1">
          <mxGeometry x="485" y="2205" width="70" height="30" as="geometry" />
        </mxCell>
        <mxCell id="QzvvF3R52LffJEx-eBrv-33" value="1" style="text;html=1;align=center;verticalAlign=middle;resizable=0;points=[];autosize=1;strokeColor=none;fillColor=none;" parent="1" vertex="1">
          <mxGeometry x="695" y="1878" width="30" height="30" as="geometry" />
        </mxCell>
        <mxCell id="QzvvF3R52LffJEx-eBrv-44" style="edgeStyle=orthogonalEdgeStyle;rounded=0;orthogonalLoop=1;jettySize=auto;html=1;" parent="1" source="QzvvF3R52LffJEx-eBrv-38" target="QzvvF3R52LffJEx-eBrv-40" edge="1">
          <mxGeometry relative="1" as="geometry" />
        </mxCell>
        <mxCell id="QzvvF3R52LffJEx-eBrv-38" value="Name1 , Mohit1" style="text;html=1;align=center;verticalAlign=middle;resizable=0;points=[];autosize=1;strokeColor=none;fillColor=none;" parent="1" vertex="1">
          <mxGeometry x="590" y="2125" width="110" height="30" as="geometry" />
        </mxCell>
        <mxCell id="QzvvF3R52LffJEx-eBrv-40" value="Name2 - Srini" style="text;html=1;align=center;verticalAlign=middle;resizable=0;points=[];autosize=1;strokeColor=none;fillColor=none;" parent="1" vertex="1">
          <mxGeometry x="725" y="2125" width="100" height="30" as="geometry" />
        </mxCell>
        <mxCell id="QzvvF3R52LffJEx-eBrv-45" value="qualification-2" style="text;html=1;align=center;verticalAlign=middle;resizable=0;points=[];autosize=1;strokeColor=none;fillColor=none;" parent="1" vertex="1">
          <mxGeometry x="490" y="2168" width="100" height="30" as="geometry" />
        </mxCell>
        <mxCell id="QzvvF3R52LffJEx-eBrv-46" value="Null, Null" style="text;html=1;align=center;verticalAlign=middle;resizable=0;points=[];autosize=1;strokeColor=none;fillColor=none;" parent="1" vertex="1">
          <mxGeometry x="510" y="2080" width="70" height="30" as="geometry" />
        </mxCell>
        <mxCell id="QzvvF3R52LffJEx-eBrv-48" value="10" style="text;html=1;align=center;verticalAlign=middle;resizable=0;points=[];autosize=1;strokeColor=none;fillColor=none;" parent="1" vertex="1">
          <mxGeometry x="570" y="2308" width="40" height="30" as="geometry" />
        </mxCell>
        <mxCell id="QzvvF3R52LffJEx-eBrv-50" value="key -&amp;gt; 155 %10 --&amp;gt;&amp;nbsp;" style="text;html=1;align=center;verticalAlign=middle;resizable=0;points=[];autosize=1;strokeColor=none;fillColor=none;" parent="1" vertex="1">
          <mxGeometry x="435" y="2310" width="130" height="30" as="geometry" />
        </mxCell>
        <mxCell id="QzvvF3R52LffJEx-eBrv-51" value="10" style="text;html=1;align=center;verticalAlign=middle;resizable=0;points=[];autosize=1;strokeColor=none;fillColor=none;" parent="1" vertex="1">
          <mxGeometry x="370" y="2358" width="40" height="30" as="geometry" />
        </mxCell>
        <mxCell id="QzvvF3R52LffJEx-eBrv-52" value="0.7" style="text;html=1;align=center;verticalAlign=middle;resizable=0;points=[];autosize=1;strokeColor=none;fillColor=none;" parent="1" vertex="1">
          <mxGeometry x="330" y="2328" width="40" height="30" as="geometry" />
        </mxCell>
        <mxCell id="QzvvF3R52LffJEx-eBrv-54" value="Null" style="whiteSpace=wrap;html=1;fillColor=#fff2cc;strokeColor=#d6b656;" parent="1" vertex="1">
          <mxGeometry x="465" y="2510" width="120" height="40" as="geometry" />
        </mxCell>
        <mxCell id="QzvvF3R52LffJEx-eBrv-55" value="" style="whiteSpace=wrap;html=1;" parent="1" vertex="1">
          <mxGeometry x="465" y="2550" width="120" height="40" as="geometry" />
        </mxCell>
        <mxCell id="QzvvF3R52LffJEx-eBrv-56" value="" style="whiteSpace=wrap;html=1;" parent="1" vertex="1">
          <mxGeometry x="465" y="2590" width="120" height="40" as="geometry" />
        </mxCell>
        <mxCell id="QzvvF3R52LffJEx-eBrv-57" value="" style="whiteSpace=wrap;html=1;" parent="1" vertex="1">
          <mxGeometry x="465" y="2630" width="120" height="40" as="geometry" />
        </mxCell>
        <mxCell id="QzvvF3R52LffJEx-eBrv-58" value="" style="whiteSpace=wrap;html=1;" parent="1" vertex="1">
          <mxGeometry x="465" y="2670" width="120" height="40" as="geometry" />
        </mxCell>
        <mxCell id="QzvvF3R52LffJEx-eBrv-59" value="0" style="text;html=1;align=center;verticalAlign=middle;resizable=0;points=[];autosize=1;strokeColor=none;fillColor=none;" parent="1" vertex="1">
          <mxGeometry x="420" y="2510" width="30" height="30" as="geometry" />
        </mxCell>
        <mxCell id="QzvvF3R52LffJEx-eBrv-60" value="1" style="text;html=1;align=center;verticalAlign=middle;resizable=0;points=[];autosize=1;strokeColor=none;fillColor=none;" parent="1" vertex="1">
          <mxGeometry x="420" y="2548" width="30" height="30" as="geometry" />
        </mxCell>
        <mxCell id="QzvvF3R52LffJEx-eBrv-61" value="2" style="text;html=1;align=center;verticalAlign=middle;resizable=0;points=[];autosize=1;strokeColor=none;fillColor=none;" parent="1" vertex="1">
          <mxGeometry x="420" y="2588" width="30" height="30" as="geometry" />
        </mxCell>
        <mxCell id="QzvvF3R52LffJEx-eBrv-62" value="3" style="text;html=1;align=center;verticalAlign=middle;resizable=0;points=[];autosize=1;strokeColor=none;fillColor=none;" parent="1" vertex="1">
          <mxGeometry x="430" y="2628" width="30" height="30" as="geometry" />
        </mxCell>
        <mxCell id="QzvvF3R52LffJEx-eBrv-63" value="4" style="text;html=1;align=center;verticalAlign=middle;resizable=0;points=[];autosize=1;strokeColor=none;fillColor=none;" parent="1" vertex="1">
          <mxGeometry x="430" y="2678" width="30" height="30" as="geometry" />
        </mxCell>
        <mxCell id="QzvvF3R52LffJEx-eBrv-66" value="Null" style="whiteSpace=wrap;html=1;fillColor=#fff2cc;strokeColor=#d6b656;" parent="1" vertex="1">
          <mxGeometry x="470" y="2708" width="120" height="40" as="geometry" />
        </mxCell>
        <mxCell id="QzvvF3R52LffJEx-eBrv-67" value="" style="whiteSpace=wrap;html=1;" parent="1" vertex="1">
          <mxGeometry x="460" y="2740" width="120" height="40" as="geometry" />
        </mxCell>
        <mxCell id="QzvvF3R52LffJEx-eBrv-68" value="" style="whiteSpace=wrap;html=1;" parent="1" vertex="1">
          <mxGeometry x="460" y="2780" width="120" height="40" as="geometry" />
        </mxCell>
        <mxCell id="QzvvF3R52LffJEx-eBrv-69" value="" style="whiteSpace=wrap;html=1;" parent="1" vertex="1">
          <mxGeometry x="460" y="2820" width="120" height="40" as="geometry" />
        </mxCell>
        <mxCell id="QzvvF3R52LffJEx-eBrv-70" value="" style="whiteSpace=wrap;html=1;" parent="1" vertex="1">
          <mxGeometry x="460" y="2860" width="120" height="40" as="geometry" />
        </mxCell>
        <mxCell id="QzvvF3R52LffJEx-eBrv-71" value="0" style="text;html=1;align=center;verticalAlign=middle;resizable=0;points=[];autosize=1;strokeColor=none;fillColor=none;" parent="1" vertex="1">
          <mxGeometry x="415" y="2700" width="30" height="30" as="geometry" />
        </mxCell>
        <mxCell id="QzvvF3R52LffJEx-eBrv-72" value="1" style="text;html=1;align=center;verticalAlign=middle;resizable=0;points=[];autosize=1;strokeColor=none;fillColor=none;" parent="1" vertex="1">
          <mxGeometry x="415" y="2738" width="30" height="30" as="geometry" />
        </mxCell>
        <mxCell id="QzvvF3R52LffJEx-eBrv-73" value="2" style="text;html=1;align=center;verticalAlign=middle;resizable=0;points=[];autosize=1;strokeColor=none;fillColor=none;" parent="1" vertex="1">
          <mxGeometry x="415" y="2778" width="30" height="30" as="geometry" />
        </mxCell>
        <mxCell id="QzvvF3R52LffJEx-eBrv-74" value="3" style="text;html=1;align=center;verticalAlign=middle;resizable=0;points=[];autosize=1;strokeColor=none;fillColor=none;" parent="1" vertex="1">
          <mxGeometry x="425" y="2818" width="30" height="30" as="geometry" />
        </mxCell>
        <mxCell id="QzvvF3R52LffJEx-eBrv-75" value="4" style="text;html=1;align=center;verticalAlign=middle;resizable=0;points=[];autosize=1;strokeColor=none;fillColor=none;" parent="1" vertex="1">
          <mxGeometry x="425" y="2868" width="30" height="30" as="geometry" />
        </mxCell>
        <mxCell id="QzvvF3R52LffJEx-eBrv-76" value="Rehashed" style="text;html=1;align=center;verticalAlign=middle;resizable=0;points=[];autosize=1;strokeColor=none;fillColor=none;" parent="1" vertex="1">
          <mxGeometry x="420" y="2378" width="80" height="30" as="geometry" />
        </mxCell>
        <mxCell id="fN5Yrmqen3N6uePxnVH--3" style="edgeStyle=none;rounded=0;orthogonalLoop=1;jettySize=auto;html=1;" parent="1" source="fN5Yrmqen3N6uePxnVH--1" edge="1">
          <mxGeometry relative="1" as="geometry">
            <mxPoint x="280" y="3040" as="targetPoint" />
          </mxGeometry>
        </mxCell>
        <mxCell id="fN5Yrmqen3N6uePxnVH--5" style="edgeStyle=none;rounded=0;orthogonalLoop=1;jettySize=auto;html=1;" parent="1" source="fN5Yrmqen3N6uePxnVH--1" edge="1">
          <mxGeometry relative="1" as="geometry">
            <mxPoint x="380" y="3040" as="targetPoint" />
          </mxGeometry>
        </mxCell>
        <mxCell id="fN5Yrmqen3N6uePxnVH--1" value="10" style="text;html=1;align=center;verticalAlign=middle;resizable=0;points=[];autosize=1;strokeColor=none;fillColor=none;" parent="1" vertex="1">
          <mxGeometry x="310" y="2988" width="40" height="30" as="geometry" />
        </mxCell>
        <mxCell id="fN5Yrmqen3N6uePxnVH--7" style="edgeStyle=none;rounded=0;orthogonalLoop=1;jettySize=auto;html=1;" parent="1" source="fN5Yrmqen3N6uePxnVH--4" edge="1">
          <mxGeometry relative="1" as="geometry">
            <mxPoint x="220" y="3100" as="targetPoint" />
          </mxGeometry>
        </mxCell>
        <mxCell id="fN5Yrmqen3N6uePxnVH--9" style="edgeStyle=none;rounded=0;orthogonalLoop=1;jettySize=auto;html=1;" parent="1" source="fN5Yrmqen3N6uePxnVH--4" edge="1">
          <mxGeometry relative="1" as="geometry">
            <mxPoint x="310" y="3110" as="targetPoint" />
          </mxGeometry>
        </mxCell>
        <mxCell id="fN5Yrmqen3N6uePxnVH--4" value="5" style="text;html=1;align=center;verticalAlign=middle;resizable=0;points=[];autosize=1;strokeColor=none;fillColor=none;" parent="1" vertex="1">
          <mxGeometry x="255" y="3038" width="30" height="30" as="geometry" />
        </mxCell>
        <mxCell id="fN5Yrmqen3N6uePxnVH--6" value="3" style="text;html=1;align=center;verticalAlign=middle;resizable=0;points=[];autosize=1;strokeColor=none;fillColor=none;" parent="1" vertex="1">
          <mxGeometry x="375" y="3038" width="30" height="30" as="geometry" />
        </mxCell>
        <mxCell id="fN5Yrmqen3N6uePxnVH--8" value="4" style="text;html=1;align=center;verticalAlign=middle;resizable=0;points=[];autosize=1;strokeColor=none;fillColor=none;" parent="1" vertex="1">
          <mxGeometry x="195" y="3098" width="30" height="30" as="geometry" />
        </mxCell>
        <mxCell id="fN5Yrmqen3N6uePxnVH--10" value="1" style="text;html=1;align=center;verticalAlign=middle;resizable=0;points=[];autosize=1;strokeColor=none;fillColor=none;" parent="1" vertex="1">
          <mxGeometry x="295" y="3108" width="30" height="30" as="geometry" />
        </mxCell>
        <mxCell id="fN5Yrmqen3N6uePxnVH--12" style="edgeStyle=none;rounded=0;orthogonalLoop=1;jettySize=auto;html=1;" parent="1" source="fN5Yrmqen3N6uePxnVH--11" edge="1">
          <mxGeometry relative="1" as="geometry">
            <mxPoint x="560" y="3130" as="targetPoint" />
          </mxGeometry>
        </mxCell>
        <mxCell id="fN5Yrmqen3N6uePxnVH--14" style="edgeStyle=none;rounded=0;orthogonalLoop=1;jettySize=auto;html=1;" parent="1" source="fN5Yrmqen3N6uePxnVH--11" edge="1">
          <mxGeometry relative="1" as="geometry">
            <mxPoint x="700" y="3130" as="targetPoint" />
          </mxGeometry>
        </mxCell>
        <mxCell id="fN5Yrmqen3N6uePxnVH--11" value="5" style="text;html=1;align=center;verticalAlign=middle;resizable=0;points=[];autosize=1;strokeColor=none;fillColor=none;" parent="1" vertex="1">
          <mxGeometry x="625" y="3048" width="30" height="30" as="geometry" />
        </mxCell>
        <mxCell id="fN5Yrmqen3N6uePxnVH--16" style="edgeStyle=none;rounded=0;orthogonalLoop=1;jettySize=auto;html=1;" parent="1" source="fN5Yrmqen3N6uePxnVH--13" edge="1">
          <mxGeometry relative="1" as="geometry">
            <mxPoint x="500" y="3190" as="targetPoint" />
          </mxGeometry>
        </mxCell>
        <mxCell id="fN5Yrmqen3N6uePxnVH--13" value="4" style="text;html=1;align=center;verticalAlign=middle;resizable=0;points=[];autosize=1;strokeColor=none;fillColor=none;" parent="1" vertex="1">
          <mxGeometry x="545" y="3128" width="30" height="30" as="geometry" />
        </mxCell>
        <mxCell id="fN5Yrmqen3N6uePxnVH--15" value="3" style="text;html=1;align=center;verticalAlign=middle;resizable=0;points=[];autosize=1;strokeColor=none;fillColor=none;" parent="1" vertex="1">
          <mxGeometry x="685" y="3138" width="30" height="30" as="geometry" />
        </mxCell>
        <mxCell id="fN5Yrmqen3N6uePxnVH--17" value="1" style="text;html=1;align=center;verticalAlign=middle;resizable=0;points=[];autosize=1;strokeColor=none;fillColor=none;" parent="1" vertex="1">
          <mxGeometry x="475" y="3188" width="30" height="30" as="geometry" />
        </mxCell>
        <mxCell id="fN5Yrmqen3N6uePxnVH--19" style="edgeStyle=none;rounded=0;orthogonalLoop=1;jettySize=auto;html=1;" parent="1" source="fN5Yrmqen3N6uePxnVH--18" edge="1">
          <mxGeometry relative="1" as="geometry">
            <mxPoint x="830" y="3080" as="targetPoint" />
          </mxGeometry>
        </mxCell>
        <mxCell id="fN5Yrmqen3N6uePxnVH--21" style="edgeStyle=none;rounded=0;orthogonalLoop=1;jettySize=auto;html=1;" parent="1" source="fN5Yrmqen3N6uePxnVH--18" edge="1">
          <mxGeometry relative="1" as="geometry">
            <mxPoint x="940" y="3080" as="targetPoint" />
          </mxGeometry>
        </mxCell>
        <mxCell id="fN5Yrmqen3N6uePxnVH--18" value="4" style="text;html=1;align=center;verticalAlign=middle;resizable=0;points=[];autosize=1;strokeColor=none;fillColor=none;" parent="1" vertex="1">
          <mxGeometry x="865" y="3018" width="30" height="30" as="geometry" />
        </mxCell>
        <mxCell id="fN5Yrmqen3N6uePxnVH--20" value="1" style="text;html=1;align=center;verticalAlign=middle;resizable=0;points=[];autosize=1;strokeColor=none;fillColor=none;" parent="1" vertex="1">
          <mxGeometry x="805" y="3078" width="30" height="30" as="geometry" />
        </mxCell>
        <mxCell id="fN5Yrmqen3N6uePxnVH--22" value="3" style="text;html=1;align=center;verticalAlign=middle;resizable=0;points=[];autosize=1;strokeColor=none;fillColor=none;" parent="1" vertex="1">
          <mxGeometry x="925" y="3078" width="30" height="30" as="geometry" />
        </mxCell>
        <mxCell id="fN5Yrmqen3N6uePxnVH--25" style="edgeStyle=none;rounded=0;orthogonalLoop=1;jettySize=auto;html=1;" parent="1" source="fN5Yrmqen3N6uePxnVH--23" edge="1">
          <mxGeometry relative="1" as="geometry">
            <mxPoint x="760" y="3020" as="targetPoint" />
          </mxGeometry>
        </mxCell>
        <mxCell id="fN5Yrmqen3N6uePxnVH--23" value="1" style="text;html=1;align=center;verticalAlign=middle;resizable=0;points=[];autosize=1;strokeColor=none;fillColor=none;" parent="1" vertex="1">
          <mxGeometry x="775" y="2958" width="30" height="30" as="geometry" />
        </mxCell>
        <mxCell id="fN5Yrmqen3N6uePxnVH--26" value="3" style="text;html=1;align=center;verticalAlign=middle;resizable=0;points=[];autosize=1;strokeColor=none;fillColor=none;" parent="1" vertex="1">
          <mxGeometry x="735" y="3028" width="30" height="30" as="geometry" />
        </mxCell>
      </root>
    </mxGraphModel>
  </diagram>
</mxfile>
